<svg width="177" height="40" viewBox="0 0 177 40" fill="none" xmlns="http://www.w3.org/2000/svg">
<g clip-path="url(#clip0_9_286)">
<path d="M168.56 11.324V0.11438H177V38.8333C174.029 38.5073 170.873 40.4003 168.425 37.2033C163.412 41.0523 155.085 41.3326 149.762 35.4246C144.833 29.9514 144.422 20.4232 148.8 14.378C153.188 8.31569 159.878 7.14898 168.555 11.3183L168.56 11.324ZM161.578 16.9059C157.408 16.9803 154.331 20.1887 154.404 24.3809C154.477 28.5788 157.69 31.8673 161.69 31.8444C165.927 31.8216 169.134 28.4186 169.038 24.0492C168.948 19.8456 165.798 16.8258 161.578 16.9059Z" fill="white"/>
<path d="M117.555 0H125.827C125.827 3.39148 125.827 6.6171 125.827 9.84272C125.827 13.0683 125.827 15.9851 125.827 19.0563C130.851 14.0578 134.019 6.37689 143.387 10.5119C140.242 14.3494 136.945 18.37 133.473 22.6022C136.798 27.8124 140.124 33.0226 143.905 38.9534C140.624 38.9534 137.997 39.1307 135.414 38.8562C134.525 38.7647 133.518 37.7009 132.972 36.8201C130.795 33.3143 128.775 29.7055 126.04 26.2396V38.6731H117.55V0H117.555Z" fill="white"/>
<path d="M59.467 8.64169C51.016 8.55018 44.1403 15.6191 44.1741 24.3637C44.2078 33.1312 50.9316 39.8627 59.6133 39.8227C67.9519 39.7827 74.7769 32.8853 74.8444 24.4209C74.9119 15.8765 67.9519 8.73891 59.467 8.64169ZM59.3545 31.7358C55.6185 31.6557 52.1919 28.1899 52.13 24.4152C52.0625 20.4289 55.5285 16.9517 59.5289 16.986C63.4281 17.0203 66.6015 20.2459 66.624 24.1979C66.6521 28.2871 63.2481 31.8158 59.3489 31.73L59.3545 31.7358Z" fill="white"/>
<path d="M31.188 38.7075V0.091507H39.3859V38.7075H31.188Z" fill="white"/>
<path d="M0.0506554 38.7075V33.9033C0.0506554 33.9033 -0.123768 24.8842 0.191319 18.8104C0.506406 12.7366 6.80252 8.18987 12.9467 8.36145C18.9784 8.52731 24.7456 13.0054 25.2857 18.9534C25.8034 24.6611 25.4658 26.7486 25.4151 32.5479V36.9174C23.1083 39.9371 20.1262 38.147 17.3185 38.4558V37.9525C17.3185 37.9525 17.3185 35.2016 17.3185 32.4621C17.3185 29.5224 17.3185 30.4547 17.3185 27.7037C17.3185 18.7475 16.3339 16.4026 12.581 16.4598C8.94061 16.5113 8.0291 18.8047 8.02348 27.8982C8.02348 31.1067 8.02348 35.4304 8.02348 38.7132H0.0506554V38.7075Z" fill="white"/>
<path d="M99.3424 30.5576V30.5233C98.0314 31.547 96.3941 32.1647 94.6105 32.1647C90.3118 32.1647 86.8289 28.6245 86.8289 24.2551C86.8289 19.8856 90.3118 16.3454 94.6105 16.3454C96.3941 16.3454 98.0314 16.9631 99.3424 17.9868V17.9525C102.64 20.3946 106.004 20.6348 109.071 20.1659C107.304 13.5545 101.362 8.69316 94.2954 8.69316C85.8387 8.69316 78.9855 15.6591 78.9855 24.2551C78.9855 32.851 85.8387 39.817 94.2954 39.817C101.368 39.817 107.315 34.9442 109.076 28.3214C106.027 27.8524 102.673 28.0926 99.3424 30.5519V30.5576Z" fill="white"/>
<path d="M111.231 21.3669C111.181 21.3669 111.136 21.3669 111.085 21.3726C111.074 21.3726 111.057 21.3726 111.046 21.3726C111.017 21.3726 110.967 21.3726 110.905 21.384C110.899 21.384 110.894 21.384 110.888 21.384C110.837 21.384 110.781 21.3955 110.708 21.4069C110.629 21.4184 110.55 21.4355 110.472 21.4527C110.348 21.4756 110.207 21.5099 110.038 21.5499C106.122 22.7109 102.628 23.6603 97.66 19.9886V20.0114C96.771 19.3194 95.6626 18.9019 94.4585 18.9019C91.5496 18.9019 89.1921 21.2983 89.1921 24.2551C89.1921 27.2119 91.5496 29.6082 94.4585 29.6082C95.6682 29.6082 96.7767 29.1907 97.66 28.4987V28.5216C102.628 24.8442 106.122 25.7935 110.038 26.9603C110.207 27.006 110.348 27.0346 110.472 27.0575C110.55 27.0746 110.624 27.0861 110.708 27.1032C110.781 27.1147 110.837 27.1204 110.888 27.1261C110.894 27.1261 110.899 27.1261 110.905 27.1261C110.967 27.1318 111.017 27.1375 111.046 27.1375C111.057 27.1375 111.074 27.1375 111.085 27.1375C111.136 27.1375 111.181 27.1433 111.231 27.1433C113.015 27.1433 114.461 25.885 114.461 24.2551C114.461 22.6251 113.015 21.3669 111.231 21.3669Z" fill="#FFD10F"/>
</g>
<defs>
<clipPath id="clip0_9_286">
<rect width="177" height="40" fill="white"/>
</clipPath>
</defs>
</svg>
